ACDC Live At Donington Mkv 1080p Ac3 5.1 640Kbps


General 
Unique ID : 228596495952241687254057115394119118755 (0xABFA156BA2C2FD82A89EFA138F452FA3) 
Complete name : C:UsersMARCVideosNew folderACDC Live At Donington Mkv 1080p Ac3 5.1 640Kbps.mkv 
Format : Matroska 
Format version : Version 2 
File size : 7.71 GiB 
Duration : 1h 58mn 
Overall bit rate mode : Variable 
Overall bit rate : 9 347 Kbps 
Movie name : video 
Encoded date : UTC 2012-10-12 15:18:12 
Writing application : mkvmerge v5.7.0 ('The Whirlwind') built on Jul 8 2012 20:08:51 
Writing library : libebml v1.2.3 + libmatroska v1.3.0 

Video 
ID : 1 
Format : AVC 
Format/Info : Advanced Video Codec 
Format profile : High@L4.0 
Format settings, CABAC : Yes 
Format settings, ReFrames : 3 frames 
Codec ID : V_MPEG4/ISO/AVC 
Duration : 1h 58mn 
Bit rate mode : Variable 
Bit rate : 8 521 Kbps 
Maximum bit rate : 25.0 Mbps 
Width : 1 920 pixels 
Height : 1 080 pixels 
Display aspect ratio : 16:9 
Frame rate mode : Constant 
Frame rate : 23.976 fps 
Color space : YUV 
Chroma subsampling : 4:2:0 
Bit depth : 8 bits 
Scan type : Progressive 
Bits/(Pixel*Frame) : 0.171 
Stream size : 7.03 GiB (91%) 
Writing library : x264 core 125 r2208 d9d2288 
Encoding settings : cabac=1 / ref=3 / deblock=1:0:0 / analyse=0x3:0x113 / me=hex / subme=7 / psy=1 / psy_rd=1.00:0.00 / mixed_ref=1 / me_range=16 / chroma_me=1 / trellis=1 / 8x8dct=1 / cqm=0 / deadzone=21,11 / fast_pskip=1 / chroma_qp_offset=-2 / threads=12 / lookahead_threads=2 / sliced_threads=0 / nr=0 / decimate=1 / interlaced=0 / bluray_compat=0 / constrained_intra=0 / bframes=3 / b_pyramid=0 / b_adapt=1 / b_bias=0 / direct=1 / weightb=1 / open_gop=0 / weightp=2 / keyint=240 / keyint_min=24 / scenecut=40 / intra_refresh=0 / rc_lookahead=40 / rc=crf / mbtree=1 / crf=24.0 / qcomp=0.60 / qpmin=0 / qpmax=69 / qpstep=4 / vbv_maxrate=25000 / vbv_bufsize=25000 / crf_max=0.0 / nal_hrd=vbr / ip_ratio=1.40 / aq=1:1.00 
Default : Yes 
Forced : No 

Audio 
ID : 2 
Format : AC-3 
Format/Info : Audio Coding 3 
Mode extension : CM (complete main) 
Format settings, Endianness : Big 
Codec ID : A_AC3 
Duration : 1h 58mn 
Bit rate mode : Constant 
Bit rate : 640 Kbps 
Channel(s) : 6 channels 
Channel positions : Front: L C R, Side: L R, LFE 
Sampling rate : 48.0 KHz 
Bit depth : 16 bits 
Compression mode : Lossy 
Stream size : 541 MiB (7%) 
Language : English 
Default : Yes 
Forced : No 

Menu 
00:00:00.000 : en:00:00:00.000 
00:05:30.747 : en:00:05:30.747 
00:11:06.875 : en:00:11:06.875 
00:15:09.909 : en:00:15:09.909 
00:19:29.919 : en:00:19:29.919 
00:23:02.715 : en:00:23:02.715 
00:26:11.195 : en:00:26:11.195 
00:45:50.873 : en:00:45:50.873 
00:52:05.539 : en:00:52:05.539 
00:56:43.400 : en:00:56:43.400 
01:00:50.272 : en:01:00:50.272 
01:06:41.414 : en:01:06:41.414 
01:15:51.881 : en:01:15:51.881 
01:20:25.988 : en:01:20:25.988 
01:24:01.036 : en:01:24:01.036 
01:27:26.116 : en:01:27:26.116 
01:44:46.280 : en:01:44:46.280 
01:49:04.830 : en:01:49:04.830 
01:55:26.128 : en:01:55:26.128 


Track listing:

1 - Thunderstruck
2 - Shoot to Thrill
3 - Back in Black
4 - Hell Ain't a Bad Place to Be
5 - Heatseeker
6 - Fire Your Guns
7 - Jailbreak
8 - The Jack
9 - Dirty Deeds Done Dirt Cheap
10 - Moneytalks
11 - Hells Bells
12 - High Voltage
13 - Whole Lotta Rosie
14 - You Shook Me All Night Long
15 - T.N.T.
16 - Let There Be Rock
17 - Highway to Hell
18 - For Those About to Rock (We Salute You)